<?xml version="1.0" standalone="no"?>
<!DOCTYPE svg PUBLIC "-//W3C//DTD SVG 20010904//EN"
 "http://www.w3.org/TR/2001/REC-SVG-20010904/DTD/svg10.dtd">
<svg version="1.0" xmlns="http://www.w3.org/2000/svg"
 width="200px" height="50px" viewBox="0 0 418.000000 197.000000"
 preserveAspectRatio="xMidYMid meet">

<g transform="translate(0.000000,197.000000) scale(0.100000,-0.100000)"
fill="#9EDEDE" stroke="none">
<path d="M475 1881 c-261 -64 -439 -276 -439 -521 0 -142 47 -249 134 -308 52
-35 72 -27 89 35 13 51 13 54 -11 90 -36 55 -48 98 -48 168 0 191 132 358 323
405 77 20 221 9 287 -22 119 -55 182 -155 188 -297 8 -175 -50 -339 -152 -429
-86 -76 -215 -60 -257 31 -10 23 -19 49 -19 58 0 8 18 76 40 149 52 172 54
247 11 291 -25 24 -37 29 -80 29 -43 0 -56 -5 -87 -32 -70 -62 -96 -178 -65
-289 11 -41 9 -59 -38 -254 -27 -116 -55 -232 -61 -260 -12 -53 -16 -281 -5
-315 3 -11 10 -20 14 -20 12 0 98 132 127 194 14 30 38 107 54 172 44 173 37
160 68 131 73 -68 181 -91 292 -63 210 54 341 242 365 522 18 214 -88 403
-279 494 -45 21 -105 43 -134 49 -78 16 -236 12 -317 -8z"/>
<path d="M1975 1489 c-52 -28 -126 -99 -179 -174 -90 -126 -208 -378 -248
-525 l-22 -83 -64 -30 c-36 -17 -87 -32 -115 -35 l-49 -5 64 65 c132 131 186
321 113 394 -20 20 -34 24 -80 24 -58 0 -95 -14 -154 -59 -19 -14 -43 -24 -54
-23 -52 9 -98 -50 -142 -181 -29 -87 -33 -182 -10 -227 21 -41 75 -56 141 -40
27 6 86 15 131 20 59 5 101 16 149 39 36 17 68 31 70 31 2 0 4 -15 4 -34 0
-68 47 -82 162 -46 35 11 101 41 145 68 l81 49 -2 -66 -1 -66 41 -3 c49 -4
122 26 222 91 l70 45 4 -49 c6 -63 21 -79 71 -79 52 0 116 33 172 88 25 24 45
40 45 34 0 -11 -56 -150 -98 -243 -77 -171 -188 -296 -289 -325 -39 -11 -75
-15 -115 -10 -68 7 -78 -7 -18 -25 55 -17 164 1 238 38 74 37 158 121 210 209
44 74 106 220 174 409 47 132 74 191 105 228 64 79 -22 146 -150 117 -144 -32
-277 -156 -324 -303 -16 -48 -25 -59 -73 -90 -86 -54 -139 -78 -168 -75 -24 3
-27 7 -25 38 1 19 34 126 73 238 39 111 68 207 65 212 -9 15 -58 1 -81 -24
-11 -13 -44 -93 -73 -180 -52 -153 -54 -157 -97 -187 -58 -39 -159 -86 -206
-94 -32 -6 -38 -4 -53 19 -14 22 -15 32 -5 82 11 54 19 65 120 170 222 231
357 445 348 551 -3 37 -4 38 -43 40 -25 2 -55 -5 -80 -18z m45 -44 c32 -39
-40 -200 -158 -354 -62 -82 -173 -204 -179 -198 -8 9 130 336 174 411 51 86
111 156 135 156 9 0 21 -7 28 -15z m642 -381 c27 -14 29 -18 17 -28 -24 -18
-55 -68 -69 -111 -52 -165 -172 -291 -241 -255 -20 11 -21 18 -17 79 9 129
108 282 204 316 51 18 69 18 106 -1z m-1268 -37 c24 -29 18 -127 -14 -211 -27
-71 -101 -156 -136 -156 -44 0 -84 67 -84 139 0 60 37 167 71 206 51 57 125
67 163 22z m-263 -312 c6 -22 18 -48 27 -57 17 -20 10 -23 -18 -8 -25 14 -40
69 -32 122 6 37 7 39 9 13 2 -16 8 -48 14 -70z"/>
<path d="M3185 1489 c-117 -61 -240 -236 -358 -509 -81 -186 -110 -345 -71
-384 34 -34 160 -5 278 64 37 22 70 40 72 40 2 0 4 -9 4 -20 0 -72 69 -112
156 -90 27 6 86 15 131 20 77 7 104 17 226 78 4 2 7 -21 7 -52 0 -51 2 -56 26
-62 45 -12 123 4 197 40 96 46 237 151 237 177 0 15 -12 10 -62 -32 -78 -62
-192 -120 -252 -126 -42 -5 -45 -4 -52 21 -7 28 13 99 77 281 l40 112 77 5
c77 4 132 22 139 45 3 9 -20 11 -96 6 -63 -4 -101 -2 -101 4 0 5 16 50 35 99
19 49 35 92 35 96 0 5 -9 8 -20 8 -36 0 -79 -52 -109 -130 -28 -73 -29 -75
-67 -80 -47 -7 -64 -16 -64 -36 0 -10 12 -14 40 -14 22 0 40 -4 40 -8 0 -5
-24 -78 -54 -163 l-53 -154 -76 -39 c-48 -25 -94 -41 -127 -44 l-52 -5 64 65
c132 131 186 321 113 394 -20 20 -34 24 -80 24 -58 0 -95 -14 -154 -59 -19
-14 -44 -24 -57 -23 -12 2 -34 -4 -47 -13 -32 -21 -83 -125 -106 -217 l-18
-73 -84 -42 c-46 -24 -100 -45 -121 -49 -31 -5 -39 -2 -53 20 -14 22 -15 32
-5 82 11 54 19 65 120 170 222 231 357 445 348 551 -3 37 -4 38 -43 40 -25 2
-55 -5 -80 -18z m45 -44 c32 -39 -40 -200 -158 -354 -62 -82 -173 -204 -179
-198 -8 9 130 336 174 411 51 86 111 156 135 156 9 0 21 -7 28 -15z m254 -418
c24 -29 18 -127 -14 -211 -27 -71 -101 -156 -136 -156 -44 0 -84 67 -84 139 0
60 37 167 71 206 51 57 125 67 163 22z m-237 -369 c18 -20 11 -23 -17 -8 -22
12 -43 79 -33 106 5 13 10 4 21 -32 7 -27 21 -57 29 -66z"/>
<path d="M2118 1333 c-16 -18 -21 -39 -19 -80 1 -28 34 -38 72 -23 31 13 43
40 37 86 -3 25 -8 29 -39 32 -24 2 -40 -3 -51 -15z"/>
</g>
</svg>
